<svg width="152" height="36" viewBox="0 0 152 36" fill="none" xmlns="http://www.w3.org/2000/svg">
<path fill-rule="evenodd" clip-rule="evenodd" d="M35.118 3.16998H38.372V10.724C40.593 9.64898 42.719 8.59098 45.056 8.59098C46.7123 8.48865 48.3367 9.07842 49.5415 10.2195C50.7463 11.3606 51.4233 12.9506 51.411 14.61C51.361 20.198 51.384 27.453 51.389 28.765H48.445C48.439 24.581 48.488 19.478 48.488 15.523C48.488 13.373 47.342 12.023 46.025 11.702C44.612 11.36 43.047 12.109 41.891 12.602C40.591 13.154 39.537 13.869 38.373 14.37V28.77H35.03V3.43698C35.023 3.31098 35.016 3.18498 35.118 3.16998Z" fill="#0C1639"/>
<path fill-rule="evenodd" clip-rule="evenodd" d="M75.665 3.34802H78.919V11.258C82.219 10.258 85.97 8.35202 89.385 10.014C90.9199 10.6321 91.9203 12.1264 91.907 13.781C91.907 16.625 91.907 19.937 91.907 20.7V23.695C91.907 25.733 89.092 28.74 84.723 28.855C81.123 28.949 75.574 28.492 75.574 24.684C75.566 23.172 75.574 21.468 75.574 19.612V3.61202C75.569 3.48802 75.562 3.36302 75.665 3.34802ZM78.919 19.522C78.919 21.064 78.925 23.103 78.919 24.332C78.913 25.622 82.319 26.018 84.284 25.832C86.032 25.666 89.057 24.612 89.057 22.954C89.057 21.954 89.034 15.216 89.034 14.19C89.034 12.844 86.634 11.79 85.076 12.235C83.076 12.811 81.059 13.725 78.919 14.368V19.522Z" fill="#0C1639"/>
<path fill-rule="evenodd" clip-rule="evenodd" d="M120.176 9.12401H124.791C126.726 9.12401 127.637 9.93401 127.645 12.061C127.645 12.761 127.637 14.735 127.645 16.769H131.09C131.09 13.242 131.096 9.36901 131.096 7.41401C131.096 3.16101 133.415 3.35001 137.809 3.35001C137.809 4.32801 137.785 5.14401 137.785 6.12201C134.944 6.12201 134.46 5.77101 134.46 7.90501C134.46 9.93001 134.46 14.34 134.46 16.759C135.519 16.765 136.36 16.765 137.577 16.765C137.577 15.321 137.577 13.583 137.571 12.059C138.861 12.059 139.621 12.059 140.911 12.059C140.911 13.599 140.922 15.214 140.922 16.759C142.547 16.759 143.743 16.778 145.527 16.77V19.702H140.911C140.906 21.152 140.911 23.208 140.911 25.216C140.911 27.15 140.89 29.271 140.911 30.562C140.934 31.999 143.155 32.242 144.811 32.081V34.832C141.082 35.532 137.603 34.061 137.58 30.542C137.566 28.449 137.559 24.596 137.573 19.688C136.45 19.688 135.659 19.699 134.461 19.699C134.461 22.453 134.461 25.842 134.461 28.764C133.218 28.758 132.454 28.758 131.097 28.764V19.7H127.65C127.65 23.319 127.644 23.985 127.644 25.784C127.69 26.5629 127.41 27.3259 126.872 27.8909C126.334 28.4558 125.585 28.772 124.805 28.764C123.28 28.764 121.48 28.754 120.189 28.754C118.824 28.754 117.189 28.754 115.699 28.754C113.506 28.754 112.75 27.846 112.75 25.786C112.75 24.195 112.75 22.029 112.75 18.538C112.75 16.258 112.745 13.944 112.745 11.913C112.745 9.88201 113.77 9.11901 115.7 9.11901H120.183M124.802 24.986C124.802 22.362 124.82 15.095 124.819 12.721C124.817 12.3043 124.496 11.9588 124.08 11.927H120.782C119.682 11.927 117.493 11.921 116.328 11.919C115.976 11.9194 115.688 12.2007 115.679 12.553C115.679 14.471 115.679 19.753 115.679 21.922C115.679 22.655 115.684 24.005 115.687 24.963C115.708 25.3999 116.051 25.7528 116.487 25.787C117.598 25.787 119.55 25.787 120.18 25.787C121.066 25.787 122.88 25.787 123.954 25.787C124.408 25.7955 124.785 25.4394 124.802 24.986Z" fill="#0C1639"/>
<path fill-rule="evenodd" clip-rule="evenodd" d="M55.524 8.67999H58.339C58.339 12.357 58.319 19.103 58.339 22.806C58.3913 24.3122 59.4929 25.5753 60.978 25.832C61.978 25.983 64.069 25.088 65.112 24.676C66.461 24.144 67.639 23.67 68.894 23.166V8.67999H72.324V28.78H68.892V26.721C67.626 27.121 66.45 27.575 65.198 27.965C63.9361 28.4903 62.6014 28.8201 61.24 28.943C58.0406 28.802 55.4969 26.2075 55.419 23.006C55.386 18.564 55.426 12.306 55.435 8.94699C55.428 8.82099 55.421 8.69499 55.524 8.67999Z" fill="#0C1639"/>
<path fill-rule="evenodd" clip-rule="evenodd" d="M111.359 11.795C110.801 12.843 110.277 13.776 109.702 14.774C107.836 13.793 105.185 12.331 103.018 12.084C101.027 11.857 98.966 12.938 99.236 15.133C99.416 16.6 101.346 16.926 103.106 17.196C106.806 17.763 110.286 18.97 109.79 23.653C109.474 26.643 106.974 28.51 104.073 28.765C99.607 29.157 96.394 27.096 93.606 25.716C94.232 24.654 94.82 23.682 95.389 22.677C96.553 23.204 97.742 23.838 99.031 24.407C100.318 25.1542 101.793 25.5152 103.28 25.447C105.155 25.227 106.899 22.609 105.039 21.147C104.065 20.379 102.414 20.347 100.993 20.071C98.483 19.579 95.675 18.635 95.276 15.946C94.619 11.514 97.781 8.76002 101.876 8.68202C106.054 8.59602 107.981 9.86902 111.359 11.795Z" fill="#0C1639"/>
<path fill-rule="evenodd" clip-rule="evenodd" d="M12.369 17.715C12.3365 20.8469 9.77703 23.3625 6.64508 23.3409C3.51314 23.3193 0.988625 20.7685 0.999347 17.6365C1.01007 14.5045 3.55199 11.9712 6.68401 11.971C8.19964 11.9787 9.65012 12.5882 10.7163 13.6654C11.7825 14.7427 12.377 16.1994 12.369 17.715Z" fill="#0C1639"/>
<ellipse cx="15.7526" cy="11.9271" rx="3.93557" ry="3.97657" transform="rotate(-0.973934 15.7526 11.9271)" fill="#0C1639"/>
<path fill-rule="evenodd" clip-rule="evenodd" d="M17.597 2.866C17.586 3.88284 16.7547 4.69928 15.7378 4.69195C14.7209 4.68463 13.9015 3.8563 13.9051 2.83941C13.9088 1.82251 14.7341 1.00006 15.751 1C16.2433 1.00265 16.7143 1.20073 17.0605 1.55067C17.4067 1.90062 17.5997 2.37376 17.597 2.866Z" fill="#0C1639"/>
<path d="M11.456 14.654L11.451 14.645V14.638C11.3515 14.4592 11.2392 14.2877 11.115 14.125C11.3822 14.1738 11.656 14.0836 11.8419 13.8856C12.0278 13.6875 12.1005 13.4086 12.035 13.145C12.1834 13.4356 12.311 13.7364 12.417 14.045C12.6416 14.2721 12.8492 14.5154 13.038 14.773C12.8277 14.6054 12.5472 14.5548 12.2915 14.6381C12.0359 14.7214 11.8392 14.9277 11.768 15.187C11.6769 15.0021 11.5726 14.824 11.456 14.654Z" fill="#0C1639"/>
<path fill-rule="evenodd" clip-rule="evenodd" d="M15.512 7.25103C15.4902 7.61263 15.2538 7.92593 14.912 8.04603V8.04203C14.839 8.06703 14.834 8.07603 14.871 8.07503C15.01 8.07503 15.742 7.95803 15.742 7.95803V4.71203C15.4823 4.67575 15.2247 4.62636 14.97 4.56403C15.051 4.59803 15.512 4.80403 15.512 5.13003V7.25103ZM15.743 4.71303V7.95903C15.743 7.95903 16.475 8.07603 16.615 8.07703C16.652 8.07703 16.647 8.06803 16.574 8.04703C16.2322 7.92693 15.9958 7.61363 15.974 7.25203V5.13003C15.974 4.80403 16.436 4.59703 16.516 4.56403C16.261 4.62672 16.003 4.67645 15.743 4.71303Z" fill="#0C1639"/>
<ellipse cx="24.802" cy="18.088" rx="5.685" ry="5.744" fill="#0C1639"/>
<ellipse cx="15.7632" cy="23.9038" rx="3.935" ry="3.976" transform="rotate(-42.697 15.7632 23.9038)" fill="#0C1639"/>
<path fill-rule="evenodd" clip-rule="evenodd" d="M13.889 32.936C13.9 31.9191 14.7313 31.1027 15.7482 31.11C16.7651 31.1174 17.5845 31.9457 17.5809 32.9626C17.5773 33.9795 16.7519 34.8019 15.735 34.802C15.2428 34.7993 14.7717 34.6013 14.4255 34.2513C14.0793 33.9014 13.8863 33.4282 13.889 32.936Z" fill="#0C1639"/>
<path d="M19.074 21.759C18.8496 21.532 18.6424 21.2887 18.454 21.031C18.6643 21.1986 18.9448 21.2493 19.2005 21.1659C19.4562 21.0826 19.6529 20.8763 19.724 20.617C19.8131 20.8011 19.9154 20.9786 20.03 21.148L20.035 21.157V21.164C20.1344 21.3429 20.2467 21.5144 20.371 21.677C20.1038 21.6282 19.83 21.7184 19.6441 21.9165C19.4582 22.1145 19.3855 22.3934 19.451 22.657C19.3043 22.3669 19.1784 22.0668 19.074 21.759Z" fill="#0C1639"/>
<path d="M15.513 30.676V28.551C15.4912 28.1894 15.2548 27.8761 14.913 27.756C14.566 27.656 15.744 27.844 15.744 27.844C15.744 27.844 16.921 27.655 16.575 27.756C16.2332 27.8761 15.9968 28.1894 15.975 28.551V30.672C15.975 30.997 16.432 31.203 16.516 31.238C16.2614 31.1755 16.0037 31.1261 15.744 31.09C15.4842 31.1274 15.2266 31.1782 14.972 31.242C15.055 31.203 15.513 30.997 15.513 30.672V30.676Z" fill="#0C1639"/>
<path d="M146.429 16.764H148.215V17.189H147.592V19.662H147.056V17.189H146.429V16.764Z" fill="#0C1639"/>
<path d="M149.068 19.662H148.533V16.762H149.386L149.673 18.107C149.718 18.3282 149.751 18.5515 149.773 18.776H149.78C149.796 18.5517 149.824 18.3284 149.864 18.107L150.151 16.762H151V19.662H150.465V18.75C150.465 18.174 150.476 17.598 150.511 17.022H150.502L149.928 19.661H149.602L149.039 17.022H149.02C149.054 17.598 149.066 18.174 149.066 18.75L149.068 19.662Z" fill="#0C1639"/>
</svg>
