<svg width="30" height="10" viewBox="0 0 30 10" fill="none" xmlns="http://www.w3.org/2000/svg">
<path d="M23.917 9.14603C23.9167 8.96705 23.9859 8.79494 24.11 8.66603L27.086 5.69003H1.78602C1.10602 5.69003 0.554016 5.38003 0.554016 4.99903C0.554016 4.61803 1.10602 4.30803 1.78602 4.30803H27.086L24.154 1.37603C23.9614 1.21285 23.873 0.957587 23.9236 0.710231C23.9742 0.462874 24.1557 0.26281 24.397 0.188412C24.6383 0.114014 24.9009 0.177127 25.082 0.353027L29.229 4.50003C29.3651 4.63071 29.4417 4.81139 29.441 5.00003C29.4417 5.18867 29.3651 5.36935 29.229 5.50003L25.082 9.64703C24.8822 9.84002 24.5862 9.89455 24.3307 9.78545C24.0752 9.67636 23.9098 9.42485 23.911 9.14703L23.917 9.14603Z" fill="#282F92"/>
</svg>
