<svg width="78" height="77" viewBox="0 0 78 77" fill="none" xmlns="http://www.w3.org/2000/svg">
<path fill-rule="evenodd" clip-rule="evenodd" d="M2.96281 23.7475C-3.00683 38.1374 0.284168 54.7067 11.3 65.723L11.298 65.719C24.7897 79.1739 46.0772 80.7809 61.436 69.504L61.036 73.504L65.536 73.947L66.706 62.105L54.844 60.936L54.4 65.426L58.778 65.857C46.9069 74.6096 30.7457 74.7074 18.7695 66.099C6.79343 57.4906 1.73581 42.1409 6.24899 28.0994C10.7622 14.0579 23.8161 4.52953 38.565 4.51104C40.4434 4.51106 42.3186 4.66457 44.172 4.97004L44.91 0.519043C42.8127 0.17332 40.6906 -0.000258456 38.565 4.34871e-05C22.9859 -0.0164661 8.93244 9.35752 2.96281 23.7475ZM69.759 52.144C69.0044 53.8601 68.109 55.5108 67.082 57.079L70.863 59.55C72.0268 57.7724 73.042 55.9017 73.898 53.957L69.759 52.144ZM58.015 47.695L61.187 30.96H54.95V26.449H66.642L62.454 48.534L58.015 47.695ZM45.579 26.365L42.045 47.749L46.504 48.483L50.038 27.099L45.579 26.365ZM11.577 48.302V46.047C11.5759 43.4267 12.5472 40.8992 14.303 38.954L17.315 35.613C18.1534 34.682 18.6166 33.473 18.615 32.22C18.615 31.5231 18.05 30.958 17.353 30.958C16.656 30.958 16.091 31.5231 16.091 32.22V33.938H11.572V32.22C11.6136 29.0572 14.1894 26.5151 17.3525 26.5151C20.5156 26.5151 23.0914 29.0572 23.133 32.22C23.1343 34.5888 22.2563 36.8737 20.669 38.632L17.658 41.973C17.176 42.5075 16.7925 43.123 16.525 43.791H23.351V48.303L11.577 48.302ZM31.869 42.99V48.115L36.388 48.116V42.991H38.275V38.479H36.388V26.449H30.966L24.122 37.927V42.99H31.869ZM29.052 38.479H31.868V33.756L29.052 38.479ZM72.498 41.298C72.3458 43.1662 72.039 45.0185 71.581 46.836L75.959 47.939C76.4778 45.8796 76.8253 43.7808 76.998 41.664L72.498 41.298ZM71.581 30.145L75.962 29.04C76.4822 31.0983 76.831 33.1962 77.005 35.312L72.505 35.681C72.348 33.8135 72.0366 31.9622 71.574 30.146L71.581 30.145ZM70.857 17.435L67.076 19.906L67.069 19.907C68.0998 21.4739 68.9988 23.1236 69.757 24.839L73.894 23.024C73.0374 21.0806 72.0216 19.2112 70.857 17.435ZM59.482 11.675L62.26 8.11604C63.9359 9.4212 65.5021 10.8613 66.943 12.422L63.619 15.478C62.3436 14.0995 60.9573 12.8279 59.474 11.676L59.482 11.675ZM51.099 2.07604L49.632 6.34304L49.624 6.34404C51.401 6.95246 53.1246 7.70704 54.777 8.60004L56.932 4.63404C55.0618 3.62147 53.1107 2.76587 51.099 2.07604Z" fill="#191C49"/>
</svg>
