<svg width="78" height="77" viewBox="0 0 78 77" fill="none" xmlns="http://www.w3.org/2000/svg">
<path fill-rule="evenodd" clip-rule="evenodd" d="M32.887 77L32.252 69.373C28.9069 68.5951 25.7127 67.2714 22.798 65.455L16.953 70.4L7.6 61.047L12.545 55.203C10.7282 52.2883 9.40407 49.0942 8.626 45.749L0.998001 45.114V31.888L8.626 31.252C9.40411 27.907 10.7282 24.7132 12.545 21.799L7.6 15.954L16.953 6.60095L22.798 11.548C25.7124 9.73068 28.9066 8.40657 32.252 7.62895L32.887 0.00195312H46.113L46.748 7.62895C50.0934 8.40642 53.2877 9.73053 56.202 11.548L62.047 6.60095L71.399 15.954L66.454 21.799C68.2714 24.713 69.5955 27.9069 70.373 31.252L78.001 31.888V45.114L70.373 45.749C69.5953 49.0943 68.2712 52.2885 66.454 55.203L71.399 61.047L62.047 70.4L56.202 65.455C53.2872 67.2712 50.0931 68.595 46.748 69.373L46.113 77H32.887ZM23.929 60.774C27.6678 63.354 31.9721 64.9975 36.479 65.5659L37.055 72.466H41.946L42.521 65.5659L44.241 65.266C48.7084 64.443 52.9129 62.5596 56.501 59.774L61.792 64.252L65.251 60.793L60.774 55.502L61.774 54.073C64.3541 50.3338 65.9976 46.0292 66.566 41.522L73.466 40.947V36.056L66.566 35.48L66.266 33.761C65.4421 29.2941 63.5591 25.0899 60.775 21.501L65.252 16.21L61.794 12.752L56.503 17.229L55.073 16.229C51.3341 13.649 47.0299 12.0055 42.523 11.437L41.947 4.53695H37.056L36.48 11.437L34.76 11.737C30.293 12.5605 26.0888 14.4435 22.5 17.228L17.21 12.75L13.751 16.209L18.228 21.5C15.4443 25.0891 13.5614 29.2932 12.737 33.76L12.437 35.48L5.537 36.056V40.947L12.437 41.522L12.737 43.242C13.5606 47.7089 15.4436 51.9132 18.228 55.502L13.751 60.793L17.21 64.252L22.5 59.775L23.929 60.774ZM39.5 15.853C26.9924 15.853 16.853 25.9924 16.853 38.5C16.8673 51.0016 26.9983 61.1326 39.5 61.1469C52.0076 61.1469 62.147 51.0075 62.147 38.5C62.147 25.9924 52.0076 15.853 39.5 15.853ZM41.764 52.088V56.476C44.9871 56.0711 48.041 54.8031 50.603 52.806L47.503 49.706L50.703 46.506L53.803 49.606C55.8003 47.044 57.0683 43.9901 57.473 40.767H53.085V36.238H57.473C57.0684 33.0148 55.8003 29.9608 53.803 27.399L50.703 30.499L47.503 27.299L50.603 24.199C48.0409 22.202 44.9871 20.934 41.764 20.529V24.917H37.234V20.529C34.0109 20.934 30.9571 22.202 28.395 24.199L31.495 27.299L28.295 30.499L25.195 27.399C23.1979 29.9606 21.9299 33.0141 21.525 36.237H25.913V40.767H21.525C21.9297 43.9901 23.1977 47.044 25.195 49.606L28.295 46.506L31.495 49.706L28.395 52.806C30.957 54.8031 34.0109 56.0711 37.234 56.476V52.088H41.764ZM32.705 36.234V40.764H41.764V29.441H37.235V36.234H32.705Z" fill="#191C49"/>
</svg>
