<svg width="70" height="78" viewBox="0 0 70 78" fill="none" xmlns="http://www.w3.org/2000/svg">
<path fill-rule="evenodd" clip-rule="evenodd" d="M16 22.89C14.7259 23.0011 13.7831 24.1239 13.894 25.398L13.893 25.4C14.0033 26.5948 15.0071 27.508 16.207 27.505C16.275 27.505 16.345 27.502 16.414 27.496C20.6247 26.9766 24.7614 25.973 28.742 24.505C38.0999 21.1982 46.6367 15.9167 53.773 9.01898C53.817 8.97698 53.857 8.93198 53.897 8.88598V12.446C53.897 13.7284 54.9366 14.768 56.219 14.768C57.5014 14.768 58.541 13.7284 58.541 12.446V3.30998C58.5399 2.69521 58.2947 2.10603 57.8592 1.67208C57.4238 1.23812 56.8338 0.994917 56.219 0.995979H47.051C45.773 0.995979 44.737 2.03199 44.737 3.30998C44.737 4.58797 45.773 5.62398 47.051 5.62398H50.626C50.6211 5.6279 50.6162 5.63179 50.6113 5.63566C50.5815 5.65937 50.5527 5.68233 50.526 5.70898C43.9114 12.1008 36.0063 17.0042 27.341 20.09C23.6783 21.4478 19.8738 22.3871 16 22.89ZM49.053 68.745V23.269C49.0541 22.6542 49.2993 22.065 49.7347 21.6311C50.1702 21.1971 50.7602 20.9539 51.375 20.955H63.4C64.6804 20.9528 65.7202 21.9886 65.723 23.269V68.745H49.053ZM2.322 78C1.04401 78 0.00799561 76.964 0.00799561 75.686C0.00799561 74.408 1.04401 73.372 2.322 73.372H67.678C68.956 73.372 69.992 74.408 69.992 75.686C69.992 76.964 68.956 78 67.678 78H2.322ZM26.665 40.6V68.745L43.336 68.746V40.6C43.3352 39.9852 43.0902 39.3959 42.6549 38.9618C42.2197 38.5276 41.6298 38.2842 41.015 38.285H28.986C28.3712 38.2842 27.7813 38.5276 27.346 38.9618C26.9108 39.3959 26.6658 39.9852 26.665 40.6ZM4.275 68.745V36.345C4.27606 35.7303 4.52132 35.1412 4.95681 34.7074C5.3923 34.2736 5.98232 34.0307 6.597 34.032H18.625C19.2397 34.0307 19.8297 34.2736 20.2652 34.7074C20.7007 35.1412 20.9459 35.7303 20.947 36.345V68.745H4.275Z" fill="#191C49"/>
</svg>
